<?xml version="1.0" encoding="UTF-8"?>
<svg width="202px" height="55px" viewBox="0 0 202 55" version="1.1" xmlns="http://www.w3.org/2000/svg" xmlns:xlink="http://www.w3.org/1999/xlink">
    <!-- Generator: Sketch 51.3 (57544) - http://www.bohemiancoding.com/sketch -->
    <title>logo</title>
    <desc>Created with Sketch.</desc>
    <defs>
        <linearGradient x1="50%" y1="3.61277325%" x2="50%" y2="99.2571351%" id="linearGradient-1">
            <stop stop-color="#E35356" offset="0%"></stop>
            <stop stop-color="#F6934B" offset="100%"></stop>
        </linearGradient>
    </defs>
    <g id="Page-1" stroke="none" stroke-width="1" fill="none" fill-rule="evenodd">
        <g id="Artboard" transform="translate(-179.000000, -162.000000)">
            <g id="logo" transform="translate(179.000000, 162.000000)">
                <g id="Group">
                    <path d="M10.736,16.168 C12.1760072,16.168 13.4239947,16.3419983 14.48,16.69 C15.5360053,17.0380017 16.4479962,17.5239969 17.216,18.148 C18.7280076,19.3720061 19.7119977,21.087989 20.168,23.296 L15.632,24.124 C15.2479981,22.8999939 14.654004,21.9100038 13.85,21.154 C13.045996,20.3979962 12.044006,20.02 10.844,20.02 C9.21199184,20.02 7.89200504,20.7039932 6.884,22.072 C5.8039946,23.5600074 5.264,25.6179869 5.264,28.246 C5.264,30.8740131 5.7439952,32.9259926 6.704,34.402 C7.6640048,35.8780074 8.97199172,36.616 10.628,36.616 C12.2840083,36.616 13.5319958,36.214004 14.372,35.41 C15.2120042,34.605996 15.632,33.5680064 15.632,32.296 L20.204,32.296 C20.204,34.9120131 19.3700083,36.9339929 17.702,38.362 C16.0339917,39.7900071 13.7480145,40.504 10.844,40.504 C7.74798452,40.504 5.28800912,39.4240108 3.464,37.264 C1.61599076,35.055989 0.692,32.056019 0.692,28.264 C0.692,24.4239808 1.63999052,21.4240108 3.536,19.264 C5.36000912,17.1999897 7.75998512,16.168 10.736,16.168 Z M32.048,22.036 C33.2240059,22.036 34.3279948,22.2219981 35.36,22.594 C36.3920052,22.9660019 37.2799963,23.5359962 38.024,24.304 C39.6800083,25.9840084 40.508,28.3119851 40.508,31.288 C40.508,34.2160146 39.6800083,36.5199916 38.024,38.2 C36.5359926,39.7360077 34.5440125,40.504 32.048,40.504 C29.5519875,40.504 27.5360077,39.7360077 26,38.2 C24.3439917,36.5439917 23.516,34.2400148 23.516,31.288 C23.516,28.287985 24.3439917,25.9600083 26,24.304 C27.5120076,22.7919924 29.5279874,22.036 32.048,22.036 Z M36.26,31.252 C36.26,29.4039908 35.9000036,28.0180046 35.18,27.094 C34.4599964,26.1699954 33.4580064,25.708 32.174,25.708 C30.8899936,25.708 29.8400041,26.1699954 29.024,27.094 C28.2079959,28.0180046 27.8,29.4039908 27.8,31.252 C27.8,33.1000092 28.1659963,34.4859954 28.898,35.41 C29.6300037,36.3340046 30.6319936,36.796 31.904,36.796 C33.1760064,36.796 34.2199959,36.3340046 35.036,35.41 C35.8520041,34.4859954 36.26,33.1000092 36.26,31.252 Z M61.1,25.816 C62.2280056,23.2959874 64.2079858,22.036 67.04,22.036 C69.1280104,22.036 70.7479942,22.7439929 71.9,24.16 C73.0040055,25.5040067 73.556,27.375988 73.556,29.776 L73.556,40 L69.272,40 L69.272,29.776 C69.272,28.4799935 68.9600031,27.5020033 68.336,26.842 C67.7119969,26.1819967 66.8360056,25.852 65.708,25.852 C64.5799944,25.852 63.6560036,26.3439951 62.936,27.328 C62.2159964,28.3120049 61.8320002,29.79999 61.784,31.792 L61.784,40 L57.536,40 L57.536,29.776 C57.536,28.4799935 57.2240031,27.5020033 56.6,26.842 C55.9759969,26.1819967 55.1000056,25.852 53.972,25.852 C52.8439944,25.852 51.878004,26.355995 51.074,27.364 C50.269996,28.372005 49.8440002,29.8839899 49.796,31.9 L49.796,40 L45.548,40 L45.548,22.504 L49.256,22.504 L49.724,25.528 C50.8760058,23.1999884 52.7239873,22.036 55.268,22.036 C56.7320073,22.036 57.9499951,22.3719966 58.922,23.044 C59.8940049,23.7160034 60.6199976,24.6399941 61.1,25.816 Z M77.804,22.504 L80.396,22.504 L80.396,20.452 C80.396,18.651991 80.9239947,17.2720048 81.98,16.312 C82.9400048,15.4479957 84.1879923,15.016 85.724,15.016 C86.7080049,15.016 87.9199928,15.1599986 89.36,15.448 L88.532,18.724 C87.8599966,18.4839988 87.2540027,18.364 86.714,18.364 C86.1739973,18.364 85.700002,18.5139985 85.292,18.814 C84.883998,19.1140015 84.68,19.6719959 84.68,20.488 L84.68,22.504 L87.884,22.504 L87.884,25.348 L84.68,25.348 L84.68,40 L80.396,40 L80.396,25.348 L77.804,25.348 L77.804,22.504 Z M99.764,22.036 C100.940006,22.036 102.043995,22.2219981 103.076,22.594 C104.108005,22.9660019 104.995996,23.5359962 105.74,24.304 C107.396008,25.9840084 108.224,28.3119851 108.224,31.288 C108.224,34.2160146 107.396008,36.5199916 105.74,38.2 C104.251993,39.7360077 102.260012,40.504 99.764,40.504 C97.2679875,40.504 95.2520077,39.7360077 93.716,38.2 C92.0599917,36.5439917 91.232,34.2400148 91.232,31.288 C91.232,28.287985 92.0599917,25.9600083 93.716,24.304 C95.2280076,22.7919924 97.2439874,22.036 99.764,22.036 Z M103.976,31.252 C103.976,29.4039908 103.616004,28.0180046 102.896,27.094 C102.175996,26.1699954 101.174006,25.708 99.89,25.708 C98.6059936,25.708 97.5560041,26.1699954 96.74,27.094 C95.9239959,28.0180046 95.516,29.4039908 95.516,31.252 C95.516,33.1000092 95.8819963,34.4859954 96.614,35.41 C97.3460037,36.3340046 98.3479936,36.796 99.62,36.796 C100.892006,36.796 101.935996,36.3340046 102.752,35.41 C103.568004,34.4859954 103.976,33.1000092 103.976,31.252 Z M117.512,25.96 C118.568005,23.4399874 120.151989,22.18 122.264,22.18 C122.672002,22.18 123.187997,22.2639992 123.812,22.432 L123.74,26.68 C123.067997,26.5359993 122.408003,26.464 121.76,26.464 C118.927986,26.464 117.512,28.4199804 117.512,32.332 L117.512,40 L113.264,40 L113.264,22.468 L117.512,22.468 L117.512,25.96 Z M138.104,39.568 C136.519992,40.1920031 135.272005,40.504 134.36,40.504 C133.447995,40.504 132.650003,40.3960011 131.966,40.18 C131.281997,39.9639989 130.676003,39.6400022 130.148,39.208 C129.043994,38.2239951 128.492,36.8680086 128.492,35.14 L128.492,25.348 L126.044,25.348 L126.044,22.504 L128.492,22.504 L128.492,17.896 L132.74,17.896 L132.74,22.504 L137.492,22.504 L137.492,25.348 L132.74,25.348 L132.74,34.996 C132.74,36.4360072 133.423993,37.156 134.792,37.156 C135.488003,37.156 136.387994,36.9640019 137.492,36.58 L138.104,39.568 Z" id="Comfort" fill="#021725"></path>
                    <path d="M147,0 L202,0 L202,55 L147,55 L147,0 Z M155.34,31.756 L155.34,38.452 C155.652002,38.6200008 156.059997,38.8239988 156.564,39.064 C157.068003,39.3040012 157.649997,39.5319989 158.31,39.748 C158.970003,39.9640011 159.689996,40.1439993 160.47,40.288 C161.250004,40.4320007 162.095995,40.504 163.008,40.504 C164.376007,40.504 165.647994,40.3420016 166.824,40.018 C168.000006,39.6939984 169.019996,39.2020033 169.884,38.542 C170.748004,37.8819967 171.419998,37.0660049 171.9,36.094 C172.380002,35.1219951 172.62,33.9880065 172.62,32.692 C172.62,31.3479933 172.314003,30.2320044 171.702,29.344 C171.089997,28.4559956 170.334004,27.7180029 169.434,27.13 C168.533995,26.5419971 167.550005,26.044002 166.482,25.636 C165.413995,25.227998 164.430004,24.820002 163.53,24.412 C162.629995,24.003998 161.874003,23.5480025 161.262,23.044 C160.649997,22.5399975 160.344,21.892004 160.344,21.1 C160.344,20.3319962 160.673997,19.7200023 161.334,19.264 C161.994003,18.8079977 162.899994,18.58 164.052,18.58 C164.652003,18.58 165.257997,18.6219996 165.87,18.706 C166.482003,18.7900004 167.051997,18.9039993 167.58,19.048 C167.652,19.0720001 167.724,19.084 167.796,19.084 L167.796,23.08 L171.756,23.08 L171.756,15.772 C170.915996,15.3159977 169.788007,14.9560013 168.372,14.692 C166.955993,14.4279987 165.516007,14.296 164.052,14.296 C162.755994,14.296 161.580005,14.4759982 160.524,14.836 C159.467995,15.1960018 158.562004,15.6999968 157.806,16.348 C157.049996,16.9960032 156.462002,17.7699955 156.042,18.67 C155.621998,19.5700045 155.412,20.5599946 155.412,21.64 C155.412,23.0560071 155.717997,24.2079956 156.33,25.096 C156.942003,25.9840044 157.697995,26.7219971 158.598,27.31 C159.498004,27.8980029 160.481995,28.3839981 161.55,28.768 C162.618005,29.1520019 163.601995,29.5359981 164.502,29.92 C165.402004,30.3040019 166.157997,30.7479975 166.77,31.252 C167.382003,31.7560025 167.688,32.4159959 167.688,33.232 C167.688,34.1440046 167.316004,34.8699973 166.572,35.41 C165.827996,35.9500027 164.784007,36.22 163.44,36.22 C162.695996,36.22 161.994003,36.1420008 161.334,35.986 C160.673997,35.8299992 160.068003,35.6320012 159.516,35.392 L159.3,35.32 L159.3,31.756 L155.34,31.756 Z M189.504,29.74 L189.504,35.608 L182.34,35.608 L182.34,14.8 L177.408,14.8 L177.408,40 L193.968,40 L193.968,29.74 L189.504,29.74 Z" id="Combined-Shape" fill="url(#linearGradient-1)" fill-rule="nonzero"></path>
                </g>
            </g>
        </g>
    </g>
</svg>